<svg width="24" height="24" viewBox="0 0 24 24" fill="none" xmlns="http://www.w3.org/2000/svg">
<g clip-path="url(#clip0_1565_2545)">
<path d="M16 12C15.2976 12.0008 14.6074 11.8164 13.9989 11.4655C13.3905 11.1145 12.8854 10.6093 12.5344 10.0009C12.1835 9.3924 11.9991 8.70217 12 7.99977C12.0009 7.29736 12.1869 6.60759 12.5393 6H6.828L6.8 5.76533C6.74255 5.27907 6.50871 4.83077 6.14279 4.5054C5.77688 4.18004 5.30432 4.00021 4.81467 4H4.66667C4.48986 4 4.32029 4.07024 4.19526 4.19526C4.07024 4.32029 4 4.48986 4 4.66667C4 4.84348 4.07024 5.01305 4.19526 5.13807C4.32029 5.2631 4.48986 5.33333 4.66667 5.33333H4.81467C4.97796 5.33335 5.13556 5.3933 5.25758 5.50181C5.3796 5.61032 5.45756 5.75983 5.47667 5.922L6.394 13.722C6.48923 14.5332 6.87899 15.2812 7.48927 15.824C8.09956 16.3668 8.8879 16.6667 9.70467 16.6667H16.6667C16.8435 16.6667 17.013 16.5964 17.1381 16.4714C17.2631 16.3464 17.3333 16.1768 17.3333 16C17.3333 15.8232 17.2631 15.6536 17.1381 15.5286C17.013 15.4036 16.8435 15.3333 16.6667 15.3333H9.70467C9.29192 15.3323 8.8896 15.2036 8.5529 14.9649C8.21619 14.7262 7.96158 14.3891 7.824 14H15.7713C16.5529 14 17.3096 13.7255 17.9092 13.2243C18.5089 12.7231 18.9134 12.0271 19.052 11.258L19.2107 10.3787C18.8398 10.8814 18.3561 11.2901 17.7984 11.5717C17.2408 11.8533 16.6247 12 16 12Z" fill="#22CAAD"/>
<path d="M8.66683 20.0006C9.40321 20.0006 10.0002 19.4037 10.0002 18.6673C10.0002 17.9309 9.40321 17.334 8.66683 17.334C7.93045 17.334 7.3335 17.9309 7.3335 18.6673C7.3335 19.4037 7.93045 20.0006 8.66683 20.0006Z" fill="#22CAAD"/>
<path d="M15.3333 20.0006C16.0697 20.0006 16.6667 19.4037 16.6667 18.6673C16.6667 17.9309 16.0697 17.334 15.3333 17.334C14.597 17.334 14 17.9309 14 18.6673C14 19.4037 14.597 20.0006 15.3333 20.0006Z" fill="#22CAAD"/>
<path d="M14.4887 9.9634C14.6033 10.0872 14.7419 10.1865 14.896 10.2553C15.0501 10.324 15.2166 10.3608 15.3853 10.3634H15.4073C15.5727 10.3639 15.7365 10.3316 15.8893 10.2683C16.0421 10.2051 16.1808 10.1121 16.2973 9.99473L19.1453 7.14673C19.271 7.02137 19.3416 6.85124 19.3418 6.67377C19.342 6.4963 19.2717 6.32602 19.1463 6.2004C19.021 6.07477 18.8508 6.00409 18.6734 6.00391C18.4959 6.00372 18.3256 6.07404 18.2 6.1994L15.4087 8.9954L14.586 8.11273C14.4652 7.98339 14.2981 7.90733 14.1212 7.90126C13.9444 7.8952 13.7723 7.95964 13.643 8.0804C13.5137 8.20116 13.4376 8.36836 13.4315 8.5452C13.4255 8.72205 13.4899 8.89406 13.6107 9.0234L14.4887 9.9634Z" fill="#22CAAD"/>
</g>
<defs>
<clipPath id="clip0_1565_2545">
<rect width="16" height="16" fill="white" transform="translate(4 4)"/>
</clipPath>
</defs>
</svg>
