<svg width="24" height="24" viewBox="0 0 24 24" fill="none" xmlns="http://www.w3.org/2000/svg">
<path d="M16.6667 6.66699H7.33333C6.4496 6.66805 5.60237 7.01958 4.97748 7.64447C4.35259 8.26936 4.00106 9.1166 4 10.0003V14.0003C4.00106 14.8841 4.35259 15.7313 4.97748 16.3562C5.60237 16.9811 6.4496 17.3326 7.33333 17.3337H16.6667C17.5504 17.3326 18.3976 16.9811 19.0225 16.3562C19.6474 15.7313 19.9989 14.8841 20 14.0003V10.0003C19.9989 9.1166 19.6474 8.26936 19.0225 7.64447C18.3976 7.01958 17.5504 6.66805 16.6667 6.66699ZM6.66667 15.3337C6.53481 15.3337 6.40592 15.2946 6.29629 15.2213C6.18665 15.1481 6.10121 15.0439 6.05075 14.9221C6.00029 14.8003 5.98709 14.6663 6.01281 14.5369C6.03853 14.4076 6.10203 14.2888 6.19526 14.1956C6.2885 14.1024 6.40729 14.0389 6.53661 14.0131C6.66593 13.9874 6.79997 14.0006 6.92179 14.0511C7.04361 14.1015 7.14773 14.187 7.22098 14.2966C7.29423 14.4062 7.33333 14.5351 7.33333 14.667C7.33333 14.8438 7.2631 15.0134 7.13807 15.1384C7.01305 15.2634 6.84348 15.3337 6.66667 15.3337ZM6.66667 10.0003C6.53481 10.0003 6.40592 9.96123 6.29629 9.88797C6.18665 9.81472 6.10121 9.7106 6.05075 9.58878C6.00029 9.46696 5.98709 9.33292 6.01281 9.2036C6.03853 9.07428 6.10203 8.95549 6.19526 8.86225C6.2885 8.76902 6.40729 8.70553 6.53661 8.6798C6.66593 8.65408 6.79997 8.66728 6.92179 8.71774C7.04361 8.7682 7.14773 8.85365 7.22098 8.96328C7.29423 9.07291 7.33333 9.2018 7.33333 9.33366C7.33333 9.51047 7.2631 9.68004 7.13807 9.80506C7.01305 9.93009 6.84348 10.0003 6.66667 10.0003ZM12 14.667C11.4726 14.667 10.957 14.5106 10.5185 14.2176C10.0799 13.9246 9.73815 13.5081 9.53632 13.0208C9.33449 12.5335 9.28168 11.9974 9.38457 11.4801C9.48747 10.9628 9.74144 10.4876 10.1144 10.1147C10.4873 9.74177 10.9625 9.48779 11.4798 9.3849C11.997 9.282 12.5332 9.33481 13.0205 9.53665C13.5078 9.73848 13.9242 10.0803 14.2173 10.5188C14.5103 10.9573 14.6667 11.4729 14.6667 12.0003C14.6667 12.7076 14.3857 13.3858 13.8856 13.8859C13.3855 14.386 12.7072 14.667 12 14.667ZM17.3333 15.3337C17.2015 15.3337 17.0726 15.2946 16.963 15.2213C16.8533 15.1481 16.7679 15.0439 16.7174 14.9221C16.667 14.8003 16.6538 14.6663 16.6795 14.5369C16.7052 14.4076 16.7687 14.2888 16.8619 14.1956C16.9552 14.1024 17.074 14.0389 17.2033 14.0131C17.3326 13.9874 17.4666 14.0006 17.5885 14.0511C17.7103 14.1015 17.8144 14.187 17.8876 14.2966C17.9609 14.4062 18 14.5351 18 14.667C18 14.8438 17.9298 15.0134 17.8047 15.1384C17.6797 15.2634 17.5101 15.3337 17.3333 15.3337ZM17.3333 10.0003C17.2015 10.0003 17.0726 9.96123 16.963 9.88797C16.8533 9.81472 16.7679 9.7106 16.7174 9.58878C16.667 9.46696 16.6538 9.33292 16.6795 9.2036C16.7052 9.07428 16.7687 8.95549 16.8619 8.86225C16.9552 8.76902 17.074 8.70553 17.2033 8.6798C17.3326 8.65408 17.4666 8.66728 17.5885 8.71774C17.7103 8.7682 17.8144 8.85365 17.8876 8.96328C17.9609 9.07291 18 9.2018 18 9.33366C18 9.51047 17.9298 9.68004 17.8047 9.80506C17.6797 9.93009 17.5101 10.0003 17.3333 10.0003ZM13.3333 12.0003C13.3333 12.264 13.2551 12.5218 13.1086 12.7411C12.9621 12.9604 12.7539 13.1312 12.5102 13.2322C12.2666 13.3331 11.9985 13.3595 11.7399 13.308C11.4812 13.2566 11.2437 13.1296 11.0572 12.9431C10.8707 12.7567 10.7437 12.5191 10.6923 12.2604C10.6408 12.0018 10.6672 11.7337 10.7682 11.4901C10.8691 11.2464 11.04 11.0382 11.2592 10.8917C11.4785 10.7452 11.7363 10.667 12 10.667C12.3536 10.667 12.6928 10.8075 12.9428 11.0575C13.1929 11.3076 13.3333 11.6467 13.3333 12.0003Z" fill="#3250FF"/>
</svg>
