<svg width="24" height="24" viewBox="0 0 24 24" fill="none" xmlns="http://www.w3.org/2000/svg">
<path d="M13.2882 6.66667C13.8305 6.6672 14.3504 6.88286 14.7338 7.26632C15.1173 7.64978 15.333 8.16971 15.3335 8.712C15.3335 8.88881 15.4037 9.05838 15.5288 9.1834C15.6538 9.30843 15.8234 9.37867 16.0002 9.37867C16.177 9.37867 16.3465 9.30843 16.4716 9.1834C16.5966 9.05838 16.6668 8.88881 16.6668 8.712V8.66667C16.6668 8.654 16.6668 8.64267 16.6668 8.63C16.6446 7.74849 16.2789 6.91052 15.6478 6.2947C15.0167 5.67889 14.17 5.33392 13.2882 5.33333H12.6668V4.66667C12.6668 4.48986 12.5966 4.32029 12.4716 4.19526C12.3465 4.07024 12.177 4 12.0002 4C11.8234 4 11.6538 4.07024 11.5288 4.19526C11.4037 4.32029 11.3335 4.48986 11.3335 4.66667V5.33333H10.7122C9.91037 5.33419 9.13502 5.62016 8.52469 6.14012C7.91436 6.66008 7.50884 7.38015 7.3806 8.17162C7.25236 8.96308 7.40977 9.77436 7.82469 10.4604C8.23961 11.1465 8.885 11.6627 9.6455 11.9167L11.3335 12.48V17.3333H10.7122C10.1699 17.3328 9.64994 17.1171 9.26648 16.7337C8.88302 16.3502 8.66736 15.8303 8.66683 15.288C8.66683 15.1112 8.59659 14.9416 8.47157 14.8166C8.34654 14.6916 8.17697 14.6213 8.00016 14.6213C7.82335 14.6213 7.65378 14.6916 7.52876 14.8166C7.40373 14.9416 7.3335 15.1112 7.3335 15.288V15.3333C7.3335 15.346 7.3335 15.3573 7.3335 15.37C7.35574 16.2515 7.7214 17.0895 8.35254 17.7053C8.98367 18.3211 9.83037 18.6661 10.7122 18.6667H11.3335V19.3333C11.3335 19.5101 11.4037 19.6797 11.5288 19.8047C11.6538 19.9298 11.8234 20 12.0002 20C12.177 20 12.3465 19.9298 12.4716 19.8047C12.5966 19.6797 12.6668 19.5101 12.6668 19.3333V18.6667H13.2882C14.09 18.6658 14.8653 18.3798 15.4756 17.8599C16.086 17.3399 16.4915 16.6199 16.6197 15.8284C16.748 15.0369 16.5906 14.2256 16.1756 13.5396C15.7607 12.8535 15.1153 12.3373 14.3548 12.0833L12.6668 11.52V6.66667H13.2882ZM13.9348 13.3473C14.3958 13.5008 14.7871 13.8132 15.0386 14.2288C15.2902 14.6444 15.3857 15.136 15.3079 15.6155C15.2301 16.0951 14.9841 16.5313 14.614 16.846C14.244 17.1608 13.774 17.3335 13.2882 17.3333H12.6668V12.9247L13.9348 13.3473ZM11.3335 11.0753L10.0668 10.6527C9.60599 10.4993 9.21477 10.1869 8.96319 9.77146C8.7116 9.356 8.61607 8.86457 8.6937 8.38512C8.77132 7.90566 9.01703 7.46948 9.38685 7.15463C9.75667 6.83978 10.2265 6.6668 10.7122 6.66667H11.3335V11.0753Z" fill="#EB3D4D"/>
</svg>
