<svg width="24" height="24" viewBox="0 0 24 24" fill="none" xmlns="http://www.w3.org/2000/svg">
<g clip-path="url(#clip0_1565_2569)">
<path d="M19.3332 11.333H17.9998V9.99966C17.9998 9.63148 17.7013 9.33301 17.3332 9.33301C16.965 9.33301 16.6665 9.63148 16.6665 9.99966V11.333H15.3332C14.965 11.333 14.6665 11.6315 14.6665 11.9997C14.6665 12.3678 14.965 12.6663 15.3332 12.6663H16.6665V13.9997C16.6665 14.3678 16.965 14.6663 17.3332 14.6663C17.7013 14.6663 17.9998 14.3678 17.9998 13.9997V12.6663H19.3332C19.7013 12.6663 19.9998 12.3678 19.9998 11.9997C19.9998 11.6315 19.7013 11.333 19.3332 11.333Z" fill="#883DCF"/>
<path d="M10 12C12.2091 12 14 10.2091 14 8C14 5.79086 12.2091 4 10 4C7.79086 4 6 5.79086 6 8C6 10.2091 7.79086 12 10 12Z" fill="#883DCF"/>
<path d="M10 13.333C6.68781 13.3367 4.00369 16.0208 4 19.333C4 19.7012 4.29847 19.9997 4.66666 19.9997H15.3333C15.7015 19.9997 16 19.7012 16 19.333C15.9963 16.0208 13.3122 13.3367 10 13.333Z" fill="#883DCF"/>
</g>
<defs>
<clipPath id="clip0_1565_2569">
<rect width="16" height="16" fill="white" transform="translate(4 4)"/>
</clipPath>
</defs>
</svg>
