<svg width="24" height="24" viewBox="0 0 24 24" fill="none" xmlns="http://www.w3.org/2000/svg">
<path d="M7.5 6.54546C7.5 5.64645 7.76392 4.76763 8.25839 4.02014C8.75285 3.27264 9.45566 2.69004 10.2779 2.346C11.1002 2.00197 12.005 1.91195 12.8779 2.08734C13.7508 2.26273 14.5526 2.69564 15.182 3.33133C15.8113 3.96703 16.2399 4.77695 16.4135 5.65868C16.5872 6.54041 16.4981 7.45435 16.1575 8.28493C15.8169 9.1155 15.2401 9.8254 14.5001 10.3249C13.76 10.8243 12.89 11.0909 12 11.0909C10.8065 11.0909 9.66193 10.612 8.81802 9.75958C7.97411 8.90714 7.5 7.75099 7.5 6.54546ZM16.5 12.9091H7.5C6.30653 12.9091 5.16193 13.388 4.31802 14.2404C3.47411 15.0929 3 16.249 3 17.4545V19.2727C3 19.996 3.28446 20.6897 3.79081 21.2012C4.29716 21.7127 4.98392 22 5.7 22H18.3C19.0161 22 19.7028 21.7127 20.2092 21.2012C20.7155 20.6897 21 19.996 21 19.2727V17.4545C21 16.249 20.5259 15.0929 19.682 14.2404C18.8381 13.388 17.6935 12.9091 16.5 12.9091Z" fill="white"/>
</svg>
