<svg width="18" height="18" viewBox="0 0 18 18" fill="none" xmlns="http://www.w3.org/2000/svg">
<path d="M9 11.2441C7.75737 11.2441 6.75 12.2515 6.75 13.4941V17.9941H11.25V13.4941C11.25 12.2515 10.2426 11.2441 9 11.2441Z" fill="#C2C6CE"/>
<path d="M12.75 13.4947V17.9947H15.75C16.9926 17.9947 18 16.9873 18 15.7447V8.90391C18.0002 8.51428 17.8488 8.13986 17.5777 7.85991L11.2043 0.96964C10.0797 -0.247118 8.18167 -0.321825 6.96491 0.802753C6.90711 0.856191 6.85143 0.911843 6.79802 0.96964L0.435762 7.85766C0.156551 8.13877 -0.000105416 8.51895 5.32206e-08 8.91516V15.7447C5.32206e-08 16.9873 1.00737 17.9947 2.25 17.9947H5.24999V13.4947C5.26402 11.4495 6.9152 9.77948 8.9088 9.73139C10.9691 9.68167 12.7343 11.3802 12.75 13.4947Z" fill="#C2C6CE"/>
<path d="M9 11.2441C7.75737 11.2441 6.75 12.2515 6.75 13.4941V17.9941H11.25V13.4941C11.25 12.2515 10.2426 11.2441 9 11.2441Z" fill="#C2C6CE"/>
</svg>
