<svg width="88" height="88" viewBox="0 0 88 88" fill="none" xmlns="http://www.w3.org/2000/svg">
<rect width="88" height="88" rx="44" fill="#FEECEE"/>
<path d="M58.9999 30.6666H53.8333C53.0358 26.7893 49.625 24.005 45.6665 24H42.3332C38.3747 24.005 34.9639 26.7893 34.1665 30.6666H28.9999C28.0794 30.6666 27.3333 31.4128 27.3333 32.3333C27.3333 33.2537 28.0794 34 28.9999 34H30.6665V55.6666C30.6721 60.2667 34.3998 63.9945 38.9999 64H48.9999C53.6 63.9945 57.3277 60.2667 57.3333 55.6666V34H58.9999C59.9204 34 60.6665 33.2538 60.6665 32.3334C60.6665 31.4129 59.9204 30.6666 58.9999 30.6666ZM42.3333 52.3334C42.3333 53.2538 41.5871 54 40.6666 54C39.7461 54 38.9999 53.2538 38.9999 52.3334V42.3334C38.9999 41.4129 39.7461 40.6667 40.6665 40.6667C41.587 40.6667 42.3332 41.4129 42.3332 42.3334V52.3334H42.3333ZM48.9999 52.3334C48.9999 53.2538 48.2537 54 47.3333 54C46.4128 54 45.6666 53.2538 45.6666 52.3334V42.3334C45.6666 41.4129 46.4128 40.6667 47.3333 40.6667C48.2537 40.6667 48.9999 41.4129 48.9999 42.3334V52.3334ZM37.6183 30.6666C38.3272 28.6705 40.215 27.3359 42.3333 27.3333H45.6666C47.7849 27.3359 49.6727 28.6705 50.3816 30.6666H37.6183Z" fill="#EB3D4D"/>
</svg>
