<svg width="16" height="16" viewBox="0 0 16 16" fill="none" xmlns="http://www.w3.org/2000/svg">
<g clip-path="url(#clip0_1794_15044)">
<path d="M7.65067 10C7.47386 10 7.30429 10.0702 7.17926 10.1953C7.05424 10.3203 6.984 10.4899 6.984 10.6667V12.6667C6.984 13.1971 6.77329 13.7058 6.39821 14.0809C6.02314 14.456 5.51443 14.6667 4.984 14.6667H3.33333C2.8029 14.6667 2.29419 14.456 1.91912 14.0809C1.54405 13.7058 1.33333 13.1971 1.33333 12.6667V3.33333C1.33333 2.8029 1.54405 2.29419 1.91912 1.91912C2.29419 1.54405 2.8029 1.33333 3.33333 1.33333H4.984C5.51443 1.33333 6.02314 1.54405 6.39821 1.91912C6.77329 2.29419 6.984 2.8029 6.984 3.33333V5.33333C6.984 5.51014 7.05424 5.67971 7.17926 5.80474C7.30429 5.92976 7.47386 6 7.65067 6C7.82748 6 7.99705 5.92976 8.12207 5.80474C8.2471 5.67971 8.31733 5.51014 8.31733 5.33333V3.33333C8.31627 2.4496 7.96475 1.60237 7.33985 0.97748C6.71496 0.352588 5.86773 0.00105857 4.984 0H3.33333C2.4496 0.00105857 1.60237 0.352588 0.97748 0.97748C0.352588 1.60237 0.00105857 2.4496 0 3.33333L0 12.6667C0.00105857 13.5504 0.352588 14.3976 0.97748 15.0225C1.60237 15.6474 2.4496 15.9989 3.33333 16H4.984C5.86773 15.9989 6.71496 15.6474 7.33985 15.0225C7.96475 14.3976 8.31627 13.5504 8.31733 12.6667V10.6667C8.31733 10.4899 8.2471 10.3203 8.12207 10.1953C7.99705 10.0702 7.82748 10 7.65067 10Z" fill="white"/>
<path d="M15.2448 6.58703L12.1875 3.5297C12.126 3.46602 12.0524 3.41524 11.9711 3.3803C11.8898 3.34536 11.8023 3.32697 11.7138 3.3262C11.6252 3.32543 11.5375 3.3423 11.4555 3.37582C11.3736 3.40934 11.2992 3.45884 11.2366 3.52143C11.174 3.58403 11.1245 3.65846 11.0909 3.74039C11.0574 3.82233 11.0406 3.91011 11.0413 3.99863C11.0421 4.08715 11.0605 4.17463 11.0954 4.25597C11.1304 4.3373 11.1812 4.41087 11.2448 4.47236L14.0862 7.31436L4.00016 7.33436C3.82335 7.33436 3.65378 7.4046 3.52876 7.52963C3.40373 7.65465 3.3335 7.82422 3.3335 8.00103C3.3335 8.17784 3.40373 8.34741 3.52876 8.47243C3.65378 8.59746 3.82335 8.6677 4.00016 8.6677L14.1255 8.64703L11.2435 11.5297C11.1798 11.5912 11.129 11.6648 11.0941 11.7461C11.0592 11.8274 11.0408 11.9149 11.04 12.0034C11.0392 12.0919 11.0561 12.1797 11.0896 12.2617C11.1231 12.3436 11.1726 12.418 11.2352 12.4806C11.2978 12.5432 11.3723 12.5927 11.4542 12.6262C11.5361 12.6598 11.6239 12.6766 11.7124 12.6759C11.801 12.6751 11.8884 12.6567 11.9698 12.6218C12.0511 12.5868 12.1247 12.536 12.1862 12.4724L15.2435 9.41503C15.6186 9.04015 15.8295 8.53163 15.8297 8.00131C15.83 7.47098 15.6196 6.96226 15.2448 6.58703Z" fill="white"/>
</g>
<defs>
<clipPath id="clip0_1794_15044">
<rect width="16" height="16" fill="white"/>
</clipPath>
</defs>
</svg>
