<svg width="36" height="36" viewBox="0 0 36 36" fill="none" xmlns="http://www.w3.org/2000/svg">
<rect width="36" height="36" rx="18" fill="#EDFFF3"/>
<g clip-path="url(#clip0_1794_15250)">
<path d="M18 26C19.5823 26 21.129 25.5308 22.4446 24.6518C23.7602 23.7727 24.7855 22.5233 25.391 21.0615C25.9965 19.5997 26.155 17.9911 25.8463 16.4393C25.5376 14.8874 24.7757 13.462 23.6569 12.3431C22.538 11.2243 21.1126 10.4624 19.5607 10.1537C18.0089 9.84504 16.4003 10.0035 14.9385 10.609C13.4767 11.2145 12.2273 12.2398 11.3482 13.5554C10.4692 14.871 10 16.4178 10 18C10.0023 20.121 10.8459 22.1545 12.3457 23.6543C13.8455 25.1541 15.879 25.9977 18 26ZM18 13.3333C18.1978 13.3333 18.3911 13.392 18.5556 13.5019C18.72 13.6117 18.8482 13.7679 18.9239 13.9507C18.9996 14.1334 19.0194 14.3344 18.9808 14.5284C18.9422 14.7224 18.847 14.9006 18.7071 15.0404C18.5673 15.1803 18.3891 15.2755 18.1951 15.3141C18.0011 15.3527 17.8 15.3329 17.6173 15.2572C17.4346 15.1815 17.2784 15.0534 17.1685 14.8889C17.0586 14.7245 17 14.5311 17 14.3333C17 14.0681 17.1054 13.8138 17.2929 13.6262C17.4804 13.4387 17.7348 13.3333 18 13.3333ZM17.3333 16.6667H18C18.3536 16.6667 18.6928 16.8071 18.9428 17.0572C19.1929 17.3072 19.3333 17.6464 19.3333 18V22C19.3333 22.1768 19.2631 22.3464 19.1381 22.4714C19.013 22.5964 18.8435 22.6667 18.6667 22.6667C18.4899 22.6667 18.3203 22.5964 18.1953 22.4714C18.0702 22.3464 18 22.1768 18 22V18H17.3333C17.1565 18 16.987 17.9298 16.8619 17.8047C16.7369 17.6797 16.6667 17.5101 16.6667 17.3333C16.6667 17.1565 16.7369 16.987 16.8619 16.8619C16.987 16.7369 17.1565 16.6667 17.3333 16.6667Z" fill="url(#paint0_linear_1794_15250)"/>
</g>
<defs>
<linearGradient id="paint0_linear_1794_15250" x1="26" y1="18" x2="10" y2="18" gradientUnits="userSpaceOnUse">
<stop stop-color="#8AC53F"/>
<stop offset="1" stop-color="#05A750"/>
</linearGradient>
<clipPath id="clip0_1794_15250">
<rect width="16" height="16" fill="white" transform="translate(10 10)"/>
</clipPath>
</defs>
</svg>
