<svg width="36" height="36" viewBox="0 0 36 36" fill="none" xmlns="http://www.w3.org/2000/svg">
<rect width="36" height="36" rx="18" fill="#EDFFF3"/>
<path d="M22.6667 12.666H13.3333C12.4496 12.6671 11.6024 13.0186 10.9775 13.6435C10.3526 14.2684 10.0011 15.1156 10 15.9993V19.9993C10.0011 20.8831 10.3526 21.7303 10.9775 22.3552C11.6024 22.9801 12.4496 23.3316 13.3333 23.3327H22.6667C23.5504 23.3316 24.3976 22.9801 25.0225 22.3552C25.6474 21.7303 25.9989 20.8831 26 19.9993V15.9993C25.9989 15.1156 25.6474 14.2684 25.0225 13.6435C24.3976 13.0186 23.5504 12.6671 22.6667 12.666ZM12.6667 21.3327C12.5348 21.3327 12.4059 21.2936 12.2963 21.2203C12.1867 21.1471 12.1012 21.043 12.0507 20.9211C12.0003 20.7993 11.9871 20.6653 12.0128 20.536C12.0385 20.4066 12.102 20.2878 12.1953 20.1946C12.2885 20.1014 12.4073 20.0379 12.5366 20.0122C12.6659 19.9864 12.8 19.9996 12.9218 20.0501C13.0436 20.1006 13.1477 20.186 13.221 20.2956C13.2942 20.4053 13.3333 20.5342 13.3333 20.666C13.3333 20.8428 13.2631 21.0124 13.1381 21.1374C13.013 21.2624 12.8435 21.3327 12.6667 21.3327ZM12.6667 15.9993C12.5348 15.9993 12.4059 15.9602 12.2963 15.887C12.1867 15.8137 12.1012 15.7096 12.0507 15.5878C12.0003 15.466 11.9871 15.3319 12.0128 15.2026C12.0385 15.0733 12.102 14.9545 12.1953 14.8613C12.2885 14.768 12.4073 14.7045 12.5366 14.6788C12.6659 14.6531 12.8 14.6663 12.9218 14.7168C13.0436 14.7672 13.1477 14.8527 13.221 14.9623C13.2942 15.0719 13.3333 15.2008 13.3333 15.3327C13.3333 15.5095 13.2631 15.6791 13.1381 15.8041C13.013 15.9291 12.8435 15.9993 12.6667 15.9993ZM18 20.666C17.4726 20.666 16.957 20.5096 16.5185 20.2166C16.0799 19.9236 15.7382 19.5071 15.5363 19.0198C15.3345 18.5326 15.2817 17.9964 15.3846 17.4791C15.4875 16.9618 15.7414 16.4867 16.1144 16.1137C16.4873 15.7408 16.9625 15.4868 17.4798 15.3839C17.997 15.281 18.5332 15.3338 19.0205 15.5357C19.5078 15.7375 19.9242 16.0793 20.2173 16.5178C20.5103 16.9564 20.6667 17.4719 20.6667 17.9993C20.6667 18.7066 20.3857 19.3849 19.8856 19.885C19.3855 20.3851 18.7072 20.666 18 20.666ZM23.3333 21.3327C23.2015 21.3327 23.0726 21.2936 22.963 21.2203C22.8533 21.1471 22.7679 21.043 22.7174 20.9211C22.667 20.7993 22.6538 20.6653 22.6795 20.536C22.7052 20.4066 22.7687 20.2878 22.8619 20.1946C22.9552 20.1014 23.074 20.0379 23.2033 20.0122C23.3326 19.9864 23.4666 19.9996 23.5885 20.0501C23.7103 20.1006 23.8144 20.186 23.8876 20.2956C23.9609 20.4053 24 20.5342 24 20.666C24 20.8428 23.9298 21.0124 23.8047 21.1374C23.6797 21.2624 23.5101 21.3327 23.3333 21.3327ZM23.3333 15.9993C23.2015 15.9993 23.0726 15.9602 22.963 15.887C22.8533 15.8137 22.7679 15.7096 22.7174 15.5878C22.667 15.466 22.6538 15.3319 22.6795 15.2026C22.7052 15.0733 22.7687 14.9545 22.8619 14.8613C22.9552 14.768 23.074 14.7045 23.2033 14.6788C23.3326 14.6531 23.4666 14.6663 23.5885 14.7168C23.7103 14.7672 23.8144 14.8527 23.8876 14.9623C23.9609 15.0719 24 15.2008 24 15.3327C24 15.5095 23.9298 15.6791 23.8047 15.8041C23.6797 15.9291 23.5101 15.9993 23.3333 15.9993ZM19.3333 17.9993C19.3333 18.2631 19.2551 18.5208 19.1086 18.7401C18.9621 18.9594 18.7539 19.1303 18.5102 19.2312C18.2666 19.3321 17.9985 19.3585 17.7399 19.3071C17.4812 19.2556 17.2437 19.1286 17.0572 18.9422C16.8707 18.7557 16.7437 18.5181 16.6923 18.2595C16.6408 18.0008 16.6672 17.7327 16.7682 17.4891C16.8691 17.2455 17.04 17.0372 17.2592 16.8907C17.4785 16.7442 17.7363 16.666 18 16.666C18.3536 16.666 18.6928 16.8065 18.9428 17.0565C19.1929 17.3066 19.3333 17.6457 19.3333 17.9993Z" fill="url(#paint0_linear_1794_15290)"/>
<defs>
<linearGradient id="paint0_linear_1794_15290" x1="26" y1="17.9993" x2="10" y2="17.9993" gradientUnits="userSpaceOnUse">
<stop stop-color="#8AC53F"/>
<stop offset="1" stop-color="#05A750"/>
</linearGradient>
</defs>
</svg>
