<svg width="40" height="40" viewBox="0 0 40 40" fill="none" xmlns="http://www.w3.org/2000/svg">
<rect width="40" height="40" rx="20" fill="url(#paint0_linear_1780_12058)"/>
<g clip-path="url(#clip0_1780_12058)">
<path d="M25.25 11H14.75C13.7554 11 12.8016 11.3951 12.0983 12.0983C11.3951 12.8016 11 13.7554 11 14.75V14.75C11 15.3467 11.2371 15.919 11.659 16.341C12.081 16.7629 12.6533 17 13.25 17H26.75C27.3204 17.007 27.8717 16.7948 28.2904 16.4073C28.709 16.0198 28.963 15.4865 29 14.9173C29.0221 14.411 28.9414 13.9056 28.7629 13.4314C28.5844 12.9572 28.3118 12.524 27.9614 12.158C27.611 11.7919 27.1901 11.5007 26.7241 11.3016C26.2581 11.1026 25.7567 11 25.25 11V11Z" fill="white"/>
<path d="M27.5 18.5H12.5C12.3011 18.5 12.1103 18.579 11.9697 18.7197C11.829 18.8603 11.75 19.0511 11.75 19.25V25.25C11.7512 26.2442 12.1467 27.1973 12.8497 27.9003C13.5527 28.6033 14.5058 28.9988 15.5 29H24.5C25.4942 28.9988 26.4473 28.6033 27.1503 27.9003C27.8533 27.1973 28.2488 26.2442 28.25 25.25V19.25C28.25 19.0511 28.171 18.8603 28.0303 18.7197C27.8897 18.579 27.6989 18.5 27.5 18.5ZM22.25 22.25H17.75C17.5511 22.25 17.3603 22.171 17.2197 22.0303C17.079 21.8897 17 21.6989 17 21.5C17 21.3011 17.079 21.1103 17.2197 20.9697C17.3603 20.829 17.5511 20.75 17.75 20.75H22.25C22.4489 20.75 22.6397 20.829 22.7803 20.9697C22.921 21.1103 23 21.3011 23 21.5C23 21.6989 22.921 21.8897 22.7803 22.0303C22.6397 22.171 22.4489 22.25 22.25 22.25Z" fill="white"/>
</g>
<defs>
<linearGradient id="paint0_linear_1780_12058" x1="20" y1="0" x2="20" y2="40" gradientUnits="userSpaceOnUse">
<stop stop-color="#F86624"/>
<stop offset="1" stop-color="#F9C80E"/>
</linearGradient>
<clipPath id="clip0_1780_12058">
<rect width="18" height="18" fill="white" transform="translate(11 11)"/>
</clipPath>
</defs>
</svg>
