<svg width="40" height="40" viewBox="0 0 40 40" fill="none" xmlns="http://www.w3.org/2000/svg">
<rect width="40" height="40" rx="20" fill="url(#paint0_linear_1780_12070)"/>
<g clip-path="url(#clip0_1780_12070)">
<path d="M22.25 24.5H14C13.2044 24.5 12.4413 24.1839 11.8787 23.6213C11.3161 23.0587 11 22.2956 11 21.5V15.5C11 14.5054 11.3951 13.5516 12.0983 12.8483C12.8016 12.1451 13.7554 11.75 14.75 11.75H18.5C18.9925 11.75 19.4801 11.847 19.9351 12.0355C20.39 12.2239 20.8034 12.5001 21.1517 12.8483C21.4999 13.1966 21.7761 13.61 21.9645 14.0649C22.153 14.5199 22.25 15.0075 22.25 15.5V24.5ZM29 19.25V18.5C29 18.0075 28.903 17.5199 28.7145 17.0649C28.5261 16.61 28.2499 16.1966 27.9016 15.8483C27.5534 15.5001 27.14 15.2239 26.6851 15.0355C26.2301 14.847 25.7425 14.75 25.25 14.75H23.75V19.25H29ZM23.75 20.75V24.5H26C26.7956 24.5 27.5587 24.1839 28.1213 23.6213C28.6839 23.0587 29 22.2956 29 21.5V20.75H23.75ZM14.0435 26C14.016 26.1232 14.0014 26.2488 14 26.375C14 26.8723 14.1975 27.3492 14.5492 27.7008C14.9008 28.0525 15.3777 28.25 15.875 28.25C16.3723 28.25 16.8492 28.0525 17.2008 27.7008C17.5525 27.3492 17.75 26.8723 17.75 26.375C17.7486 26.2488 17.734 26.1232 17.7065 26H14.0435ZM22.2935 26C22.266 26.1232 22.2514 26.2488 22.25 26.375C22.25 26.8723 22.4475 27.3492 22.7992 27.7008C23.1508 28.0525 23.6277 28.25 24.125 28.25C24.6223 28.25 25.0992 28.0525 25.4508 27.7008C25.8025 27.3492 26 26.8723 26 26.375C25.9986 26.2488 25.984 26.1232 25.9565 26H22.2935Z" fill="white"/>
</g>
<defs>
<linearGradient id="paint0_linear_1780_12070" x1="20" y1="0" x2="20" y2="40" gradientUnits="userSpaceOnUse">
<stop stop-color="#3250FF"/>
<stop offset="1" stop-color="#2BB2FE"/>
</linearGradient>
<clipPath id="clip0_1780_12070">
<rect width="18" height="18" fill="white" transform="translate(11 11)"/>
</clipPath>
</defs>
</svg>
