<svg width="36" height="36" viewBox="0 0 36 36" fill="none" xmlns="http://www.w3.org/2000/svg">
<rect width="36" height="36" rx="18" fill="#EDFFF3"/>
<g clip-path="url(#clip0_1794_15312)">
<path d="M20 21.9993H12.6667C11.9594 21.9993 11.2811 21.7184 10.781 21.2183C10.281 20.7182 10 20.0399 10 19.3327V13.9993C10 13.1153 10.3512 12.2674 10.9763 11.6423C11.6014 11.0172 12.4493 10.666 13.3333 10.666H16.6667C17.1044 10.666 17.5379 10.7522 17.9423 10.9198C18.3467 11.0873 18.7142 11.3328 19.0237 11.6423C19.3332 11.9519 19.5787 12.3193 19.7463 12.7237C19.9138 13.1282 20 13.5616 20 13.9993V21.9993ZM26 17.3327V16.666C26 16.2283 25.9138 15.7948 25.7463 15.3904C25.5788 14.986 25.3332 14.6185 25.0237 14.309C24.7142 13.9995 24.3467 13.7539 23.9423 13.5864C23.5379 13.4189 23.1044 13.3327 22.6667 13.3327H21.3333V17.3327H26ZM21.3333 18.666V21.9993H23.3333C24.0406 21.9993 24.7189 21.7184 25.219 21.2183C25.719 20.7182 26 20.0399 26 19.3327V18.666H21.3333ZM12.7053 23.3327C12.6809 23.4422 12.668 23.5539 12.6667 23.666C12.6667 24.108 12.8423 24.532 13.1548 24.8445C13.4674 25.1571 13.8913 25.3327 14.3333 25.3327C14.7754 25.3327 15.1993 25.1571 15.5118 24.8445C15.8244 24.532 16 24.108 16 23.666C15.9987 23.5539 15.9858 23.4422 15.9613 23.3327H12.7053ZM20.0387 23.3327C20.0142 23.4422 20.0013 23.5539 20 23.666C20 24.108 20.1756 24.532 20.4882 24.8445C20.8007 25.1571 21.2246 25.3327 21.6667 25.3327C22.1087 25.3327 22.5326 25.1571 22.8452 24.8445C23.1577 24.532 23.3333 24.108 23.3333 23.666C23.332 23.5539 23.3191 23.4422 23.2947 23.3327H20.0387Z" fill="url(#paint0_linear_1794_15312)"/>
</g>
<defs>
<linearGradient id="paint0_linear_1794_15312" x1="26" y1="17.9993" x2="10" y2="17.9993" gradientUnits="userSpaceOnUse">
<stop stop-color="#8AC53F"/>
<stop offset="1" stop-color="#05A750"/>
</linearGradient>
<clipPath id="clip0_1794_15312">
<rect width="16" height="16" fill="white" transform="translate(10 10)"/>
</clipPath>
</defs>
</svg>
