<svg width="36" height="36" viewBox="0 0 36 36" fill="none" xmlns="http://www.w3.org/2000/svg">
<rect width="36" height="36" rx="18" fill="#EDFFF3"/>
<g clip-path="url(#clip0_1794_15227)">
<path d="M18.0002 10.0273C16.2362 10.0293 14.5449 10.7309 13.2975 11.9782C12.0501 13.2255 11.3483 14.9166 11.3462 16.6807C11.3462 18.394 12.6729 21.0753 15.2895 24.65C15.601 25.0768 16.0089 25.4239 16.4799 25.6633C16.951 25.9026 17.4718 26.0274 18.0002 26.0274C18.5285 26.0274 19.0494 25.9026 19.5205 25.6633C19.9915 25.4239 20.3994 25.0768 20.7109 24.65C23.3275 21.0753 24.6542 18.394 24.6542 16.6807C24.6521 14.9166 23.9503 13.2255 22.7029 11.9782C21.4555 10.7309 19.7642 10.0293 18.0002 10.0273ZM18.0002 19.3327C17.4728 19.3327 16.9572 19.1763 16.5187 18.8833C16.0801 18.5902 15.7383 18.1738 15.5365 17.6865C15.3347 17.1992 15.2819 16.6631 15.3848 16.1458C15.4877 15.6285 15.7416 15.1533 16.1146 14.7804C16.4875 14.4075 16.9627 14.1535 17.48 14.0506C17.9972 13.9477 18.5334 14.0005 19.0207 14.2023C19.508 14.4042 19.9244 14.746 20.2174 15.1845C20.5105 15.623 20.6669 16.1386 20.6669 16.666C20.6669 17.3733 20.3859 18.0515 19.8858 18.5516C19.3857 19.0517 18.7074 19.3327 18.0002 19.3327Z" fill="url(#paint0_linear_1794_15227)"/>
</g>
<defs>
<linearGradient id="paint0_linear_1794_15227" x1="24.6542" y1="18.0274" x2="11.3462" y2="18.0274" gradientUnits="userSpaceOnUse">
<stop stop-color="#8AC53F"/>
<stop offset="1" stop-color="#05A750"/>
</linearGradient>
<clipPath id="clip0_1794_15227">
<rect width="16" height="16" fill="white" transform="translate(10 10)"/>
</clipPath>
</defs>
</svg>
